<svg width="141" height="40" viewBox="0 0 141 40" fill="none" xmlns="http://www.w3.org/2000/svg">
<g clip-path="url(#clip0_2477_1924)">
<path d="M48.0684 25.1522C47.9655 25.843 47.7485 26.4481 47.4151 26.9721C47.0816 27.4961 46.6272 27.9052 46.0507 28.1993C45.4743 28.4934 44.7757 28.6388 43.9562 28.6388C42.8541 28.6388 41.9634 28.3897 41.2852 27.8928C40.6047 27.3947 40.113 26.6915 39.8056 25.7844C39.497 24.8784 39.3444 23.863 39.3444 22.7395C39.3444 21.5383 39.5106 20.4857 39.844 19.5786C40.1763 18.6715 40.6827 17.9638 41.3621 17.451C42.0414 16.9406 42.8926 16.6848 43.9178 16.6848C45.1216 16.6848 46.0575 17.0116 46.7233 17.6629C47.3891 18.3142 47.7722 19.1256 47.8762 20.0958H53.91C53.8071 18.3852 53.32 16.8775 52.4496 15.5759C51.5781 14.2732 50.4127 13.2568 48.9512 12.5299C47.4908 11.8019 45.8134 11.438 43.9178 11.438C42.1748 11.438 40.6307 11.7321 39.2868 12.3192C37.9417 12.9074 36.8136 13.712 35.9048 14.7341C34.9948 15.7551 34.3099 16.9237 33.8487 18.2399C33.3875 19.5549 33.1558 20.9286 33.1558 22.3586V23.0866C33.1558 24.4659 33.3796 25.8013 33.8295 27.0904C34.276 28.3807 34.9496 29.5358 35.8471 30.5579C36.7435 31.5788 37.858 32.3969 39.1895 33.01C40.5211 33.623 42.1115 33.9295 43.9551 33.9295C45.7987 33.9295 47.5428 33.5588 49.0281 32.8184C50.5133 32.078 51.7047 31.0492 52.6022 29.7341C53.4986 28.419 53.9857 26.8932 54.0626 25.1556H48.0673L48.0684 25.1522ZM75.9709 22.202C75.9709 20.2863 75.5594 18.5182 74.74 16.8955C73.9204 15.2739 72.7347 13.9588 71.185 12.9491C69.6342 11.9417 67.7318 11.4357 65.4779 11.4357C63.7609 11.4357 62.2305 11.7366 60.8853 12.3361C59.5402 12.9367 58.4133 13.7481 57.5034 14.7702C56.5934 15.7911 55.9028 16.9473 55.4281 18.2376C54.9533 19.5279 54.7159 20.8756 54.7159 22.2798V23.046C54.7159 24.3994 54.9533 25.7224 55.4281 27.0116C55.9028 28.3007 56.6002 29.4693 57.5226 30.5173C58.4449 31.5642 59.5922 32.3936 60.9622 33.0077C62.3322 33.6207 63.9158 33.9273 65.7096 33.9273C67.5035 33.9273 69.0396 33.614 70.3983 32.9886C71.7559 32.362 72.8828 31.4999 73.7803 30.4012C74.6767 29.3036 75.2791 28.0517 75.5866 26.6464H69.9383C69.6817 27.2854 69.1945 27.8218 68.4767 28.2556C67.759 28.6895 66.8377 28.907 65.7108 28.907C64.4798 28.907 63.4817 28.6523 62.712 28.1418C61.9445 27.6313 61.3804 26.909 61.021 25.9771C60.8209 25.4587 60.6774 24.8907 60.5892 24.2721H75.972V22.2031L75.9709 22.202ZM60.6344 20.7844C60.7305 20.2299 60.8707 19.7262 61.0594 19.271C61.4437 18.3379 62.0066 17.6358 62.7493 17.1626C63.4919 16.6893 64.4018 16.4537 65.4791 16.4537C66.5563 16.4537 67.4063 16.6893 68.1116 17.1626C68.817 17.6358 69.3414 18.312 69.6885 19.1932C69.8738 19.6654 70.0095 20.1961 70.0965 20.7832H60.6367L60.6344 20.7844ZM125.803 22.202C125.803 20.2863 125.392 18.5182 124.572 16.8955C123.753 15.2739 122.567 13.9588 121.017 12.9491C119.466 11.9417 117.564 11.4357 115.31 11.4357C113.593 11.4357 112.063 11.7366 110.718 12.3361C109.373 12.9367 108.246 13.7481 107.336 14.7702C106.426 15.7911 105.735 16.9473 105.26 18.2376C104.786 19.5268 104.548 20.8756 104.548 22.2798V23.046C104.548 24.3994 104.784 25.7224 105.26 27.0116C105.734 28.3007 106.433 29.4693 107.355 30.5173C108.277 31.5642 109.423 32.3936 110.795 33.0077C112.164 33.6207 113.748 33.9273 115.542 33.9273C117.336 33.9273 118.872 33.614 120.231 32.9886C121.588 32.362 122.715 31.4999 123.613 30.4012C124.509 29.3036 125.111 28.0517 125.419 26.6464H119.769C119.514 27.2854 119.027 27.8218 118.309 28.2556C117.591 28.6895 116.67 28.907 115.543 28.907C114.312 28.907 113.314 28.6523 112.544 28.1418C111.777 27.6313 111.213 26.909 110.853 25.9771C110.653 25.4587 110.51 24.8907 110.421 24.2721H125.804V22.2031L125.803 22.202ZM110.467 20.7844C110.563 20.2299 110.703 19.7262 110.891 19.271C111.275 18.3379 111.838 17.6358 112.58 17.1626C113.323 16.6904 114.233 16.4537 115.309 16.4537C116.385 16.4537 117.236 16.6893 117.942 17.1626C118.647 17.6347 119.171 18.312 119.518 19.1932C119.704 19.6654 119.839 20.1961 119.925 20.7832H110.467V20.7844ZM139.836 11.8955C137.428 11.8955 135.591 12.699 134.321 14.3093C133.365 15.5229 132.769 17.1276 132.534 19.1233V12.1637H127.615V33.1598H133.803V22.4702C133.803 20.7585 134.264 19.4569 135.186 18.5621C136.109 17.6685 137.415 17.2212 139.106 17.2212H140.643V11.8966H139.836V11.8955ZM90.7196 28.2962L89.9555 33.7233C89.0309 33.9385 88.052 34.0456 87.0177 34.0456C85.2239 34.0456 83.6844 33.7391 82.4003 33.126C82.2906 33.0742 82.1844 33.0201 82.0793 32.9649C80.9422 32.371 80.0209 31.5946 79.3122 30.6356C78.5379 29.5887 78.0044 28.4202 77.7116 27.1299C77.7116 27.1299 77.4471 25.9703 77.446 24.6654C77.446 23.4213 78.2112 17.4499 79.4433 8.85965H85.3957C84.0879 17.5096 83.274 23.499 83.2605 24.5842C83.2503 25.3494 83.4481 26.0954 83.4481 26.0954C83.7115 27.0904 84.1568 27.6167 84.3015 27.779C84.4598 27.9559 84.6384 28.117 84.8339 28.2601C85.5313 28.7706 86.4933 29.0253 87.7242 29.0253C88.8512 29.0253 89.804 28.8089 90.5828 28.374C90.6292 28.348 90.6744 28.321 90.7196 28.2951V28.2962ZM104.669 28.2962L103.905 33.7233C102.98 33.9385 102 34.0456 100.966 34.0456C99.1723 34.0456 97.6339 33.7391 96.3487 33.126C96.2402 33.0742 96.134 33.0201 96.0288 32.9649C94.8917 32.371 93.9693 31.5946 93.2606 30.6356C92.4863 29.5887 91.9539 28.4202 91.6612 27.1299C91.6612 27.1299 91.3956 25.9703 91.3956 24.6654C91.3956 23.3604 92.1608 17.4499 93.3929 8.85965H99.3441C98.0375 17.5096 97.2225 23.499 97.21 24.5842C97.1999 25.3494 97.3977 26.0954 97.3977 26.0954C97.6599 27.0904 98.1053 27.6167 98.2511 27.779C98.4093 27.9559 98.5879 28.117 98.7835 28.2601C99.4809 28.7706 100.443 29.0253 101.674 29.0253C102.801 29.0253 103.754 28.8089 104.531 28.374C104.578 28.348 104.624 28.321 104.668 28.2951L104.669 28.2962ZM25.8628 36.8245V36.8256C25.1699 37.8263 24.3075 38.6117 23.2992 39.1594C22.2751 39.7172 21.1572 39.9989 19.976 39.9989C19.6945 39.9989 19.4086 39.982 19.1248 39.9493H19.1203H19.1158C17.1015 39.6755 15.1053 38.7143 13.1826 37.0938C11.6974 35.8418 10.2663 34.209 8.92462 32.2358L8.28372 33.0224C7.99322 33.3785 7.56369 33.5836 7.10703 33.5836C6.39605 33.5836 5.78453 33.1035 5.6195 32.4172L4.78192 28.9227C4.72653 28.6917 4.56037 28.5024 4.33882 28.4168L0.974923 27.1231C0.430098 26.9135 0.0582149 26.4222 0.0062191 25.8418C-0.0457767 25.2626 0.231157 24.7138 0.728508 24.4096L3.80417 22.5356C4.0065 22.4116 4.13649 22.1964 4.14892 21.9597L4.34334 18.3717C4.36595 17.9649 4.54341 17.593 4.84296 17.3248C5.12667 17.0724 5.49177 16.9327 5.87157 16.9327C6.25136 16.9327 6.57464 17.0589 6.8561 17.2989L9.59379 19.6361C9.72491 19.7476 9.8922 19.8096 10.064 19.8096C10.1262 19.8096 10.1883 19.8017 10.2494 19.7848L13.7331 18.8608C13.8654 18.8258 13.9987 18.8078 14.1321 18.8078C14.6374 18.8078 15.1087 19.0625 15.3947 19.4873C15.6807 19.9155 15.7315 20.4339 15.5326 20.9106L14.1502 24.2293C14.0586 24.449 14.0812 24.698 14.2112 24.8975L16.1679 27.9153C16.4764 28.3897 16.4991 28.9701 16.2278 29.4659C15.9599 29.9561 15.449 30.2604 14.894 30.2604C14.8521 30.2604 14.8092 30.2581 14.7674 30.2547L13.8993 30.186C14.3017 30.7551 14.7199 31.2926 15.1483 31.7918C15.562 32.273 16.4052 33.1891 17.4078 33.925C18.4138 34.6631 19.317 35.0372 20.0935 35.0372C20.3253 35.0372 20.5491 35.0023 20.7582 34.9347C21.3132 34.7431 21.8128 34.2642 22.2435 33.5126C23.4337 31.323 23.8022 28.1182 23.3365 23.987C22.9646 20.9557 22.1417 17.8161 20.956 14.9077C20.3354 13.3852 19.6233 11.9462 18.8377 10.63C18.0137 9.24842 17.1083 7.99983 16.1464 6.91915C15.4117 6.08976 14.5684 5.33812 13.7693 4.80172C12.7599 4.12446 11.833 3.77964 11.0135 3.77964C10.194 3.77964 9.51466 4.11658 8.9201 4.80961C8.18651 5.71901 7.65864 6.94168 7.35119 8.44608C7.11268 9.61353 6.99965 10.9726 7.00417 12.602C7.00869 13.0494 6.8414 13.4731 6.53169 13.7988C6.22084 14.1245 5.80262 14.3127 5.35274 14.3296C5.33126 14.3296 5.30866 14.3296 5.28605 14.3296C4.84069 14.3296 4.41908 14.1605 4.09806 13.8518C3.77591 13.543 3.58941 13.1283 3.57245 12.682C3.50124 10.808 3.60975 9.14137 3.90251 7.58739C4.07997 6.60362 4.35239 5.67055 4.71071 4.81637C5.09954 3.89007 5.58333 3.07421 6.1485 2.39244C6.77019 1.64306 7.48683 1.05933 8.28033 0.658159C9.14617 0.2198 10.1036 -0.00219727 11.1288 -0.00219727C11.3842 -0.00219727 11.6465 0.0124523 11.9099 0.0394976H11.9144H11.9189C13.281 0.209658 14.582 0.6976 15.8932 1.52924C16.9252 2.18396 17.9674 3.05956 19.0762 4.20673L19.0785 4.20898L19.0808 4.21124C20.2574 5.46095 21.3652 6.90562 22.3757 8.5058C23.3376 10.0294 24.2102 11.6926 24.9721 13.4528C26.4348 16.8358 27.4509 20.488 27.9099 24.0152V24.0185C28.5824 29.5482 27.8929 33.8551 25.8605 36.8222L25.8628 36.8245Z" fill="#EBEFE0"/>
</g>
<defs>
<clipPath id="clip0_2477_1924">
<rect width="140.645" height="40" fill="white"/>
</clipPath>
</defs>
</svg>
