<svg width="258" height="40" viewBox="0 0 258 40" fill="none" xmlns="http://www.w3.org/2000/svg">
<path d="M16.789 20.0368L11.3176 29.5127L8.9593 33.5921L0 28.4179L4.85039 20.018L0 11.6182L8.96198 6.45459L11.2132 10.3413L16.7863 19.9966C16.7859 20.01 16.7868 20.0235 16.789 20.0368Z" fill="#EBEFE0"/>
<path d="M45.5113 20.0206C45.5113 22.5047 45.022 24.9644 44.0713 27.2594C43.1206 29.5544 41.7271 31.6396 39.9705 33.396C38.2138 35.1524 36.1284 36.5456 33.8333 37.4959C31.5382 38.4463 29.0783 38.9353 26.5942 38.9349H12.1394L13.6224 36.3759L17.5305 29.6036H26.5942C27.8664 29.6248 29.13 29.3926 30.3114 28.9205C31.4929 28.4484 32.5685 27.7458 33.4756 26.8537C34.3828 25.9616 35.1032 24.8979 35.595 23.7245C36.0868 22.5511 36.3401 21.2915 36.3401 20.0192C36.3401 18.7469 36.0868 17.4874 35.595 16.314C35.1032 15.1406 34.3828 14.0768 33.4756 13.1847C32.5685 12.2926 31.4929 11.5901 30.3114 11.1179C29.13 10.6458 27.8664 10.4136 26.5942 10.4349H17.4261L13.6224 3.84724L12.0377 1.10083H26.5942C29.0787 1.10083 31.5388 1.59022 33.8341 2.54106C36.1294 3.4919 38.2149 4.88556 39.9716 6.64245C41.7282 8.39935 43.1216 10.4851 44.0721 12.7805C45.0226 15.0759 45.5117 17.5361 45.5113 20.0206Z" fill="#EBEFE0"/>
<path d="M59.9277 31.1268V26.9414H64.7156C65.9205 26.9414 66.9881 26.7617 67.9182 26.4023C68.8694 26.0218 69.6727 25.4934 70.328 24.8169C70.9833 24.1405 71.48 23.3478 71.8182 22.4388C72.1776 21.5087 72.3573 20.4835 72.3573 19.3632C72.3573 18.2005 72.1776 17.1647 71.8182 16.2558C71.48 15.3257 70.9833 14.533 70.328 13.8777C69.6727 13.2224 68.8694 12.7256 67.9182 12.3874C66.9881 12.0492 65.9205 11.8801 64.7156 11.8801H59.9277V7.6946H64.4303C66.523 7.6946 68.3515 8.00111 69.9158 8.61413C71.48 9.22715 72.7801 10.0727 73.8158 11.1508C74.8516 12.2077 75.6232 13.4232 76.1305 14.7972C76.659 16.1501 76.9232 17.5558 76.9232 19.0144V19.7119C76.9232 21.1071 76.659 22.4811 76.1305 23.834C75.6232 25.1869 74.8516 26.4129 73.8158 27.5121C72.7801 28.6113 71.48 29.4886 69.9158 30.1439C68.3515 30.7992 66.523 31.1268 64.4303 31.1268H59.9277ZM56.0594 31.1268V7.6946H60.5619V31.1268H56.0594ZM87.3601 31.6025C85.8804 31.6025 84.5804 31.3488 83.46 30.8415C82.3608 30.3341 81.4413 29.6577 80.7014 28.8121C79.9827 27.9455 79.4331 26.9836 79.0526 25.9267C78.6933 24.8698 78.5136 23.7917 78.5136 22.6925V22.09C78.5136 20.9486 78.6933 19.8493 79.0526 18.7924C79.4331 17.7143 79.9827 16.7631 80.7014 15.9387C81.4413 15.0931 82.3503 14.4273 83.4283 13.9411C84.5064 13.4337 85.7536 13.1801 87.1699 13.1801C89.0301 13.1801 90.5838 13.5923 91.831 14.4167C93.0993 15.22 94.0505 16.2875 94.6847 17.6192C95.3188 18.9298 95.6359 20.3461 95.6359 21.8681V23.4535H80.3844V20.7583H92.8773L91.5139 22.09C91.5139 20.9908 91.3553 20.0502 91.0383 19.268C90.7212 18.4859 90.235 17.8834 89.5797 17.4607C88.9455 17.0379 88.1423 16.8265 87.1699 16.8265C86.1975 16.8265 85.3731 17.0485 84.6967 17.4924C84.0202 17.9363 83.5023 18.581 83.143 19.4266C82.8047 20.251 82.6356 21.2445 82.6356 22.4071C82.6356 23.4852 82.8047 24.447 83.143 25.2926C83.4812 26.117 83.9991 26.7723 84.6967 27.2585C85.3942 27.7235 86.2821 27.956 87.3601 27.956C88.4382 27.956 89.3155 27.7446 89.9919 27.3219C90.6683 26.878 91.1017 26.3389 91.2919 25.7048H95.3506C95.0969 26.8885 94.6107 27.9243 93.892 28.8121C93.1733 29.7 92.2537 30.387 91.1334 30.8732C90.0342 31.3594 88.7764 31.6025 87.3601 31.6025ZM106.072 31.6025C104.592 31.6025 103.292 31.3488 102.172 30.8415C101.072 30.3341 100.153 29.6577 99.4129 28.8121C98.6942 27.9455 98.1446 26.9836 97.7641 25.9267C97.4047 24.8698 97.225 23.7917 97.225 22.6925V22.09C97.225 20.9486 97.4047 19.8493 97.7641 18.7924C98.1446 17.7143 98.6942 16.7631 99.4129 15.9387C100.153 15.0931 101.062 14.4273 102.14 13.9411C103.218 13.4337 104.465 13.1801 105.881 13.1801C107.742 13.1801 109.295 13.5923 110.542 14.4167C111.811 15.22 112.762 16.2875 113.396 17.6192C114.03 18.9298 114.347 20.3461 114.347 21.8681V23.4535H99.0958V20.7583H111.589L110.225 22.09C110.225 20.9908 110.067 20.0502 109.75 19.268C109.433 18.4859 108.946 17.8834 108.291 17.4607C107.657 17.0379 106.854 16.8265 105.881 16.8265C104.909 16.8265 104.085 17.0485 103.408 17.4924C102.732 17.9363 102.214 18.581 101.854 19.4266C101.516 20.251 101.347 21.2445 101.347 22.4071C101.347 23.4852 101.516 24.447 101.854 25.2926C102.193 26.117 102.711 26.7723 103.408 27.2585C104.106 27.7235 104.994 27.956 106.072 27.956C107.15 27.956 108.027 27.7446 108.703 27.3219C109.38 26.878 109.813 26.3389 110.003 25.7048H114.062C113.808 26.8885 113.322 27.9243 112.603 28.8121C111.885 29.7 110.965 30.387 109.845 30.8732C108.746 31.3594 107.488 31.6025 106.072 31.6025ZM114.922 31L123.071 18.6656L123.103 19.2046L115.619 7.85314H120.629L125.639 15.6216H126.305L131.283 7.85314H136.103L128.525 19.2997L128.461 18.7607L136.8 31H131.822L125.988 22.312H125.322L119.741 31H114.922ZM146.357 31.6025C144.835 31.6025 143.492 31.3594 142.33 30.8732C141.167 30.387 140.184 29.7317 139.381 28.9073C138.578 28.0617 137.965 27.1105 137.542 26.0535C137.14 24.9966 136.939 23.8974 136.939 22.7559V22.09C136.939 20.9063 137.151 19.7859 137.574 18.729C138.017 17.6509 138.641 16.6997 139.444 15.8753C140.269 15.0297 141.262 14.3744 142.425 13.9094C143.587 13.4232 144.898 13.1801 146.357 13.1801C147.815 13.1801 149.126 13.4232 150.288 13.9094C151.451 14.3744 152.434 15.0297 153.237 15.8753C154.062 16.6997 154.685 17.6509 155.108 18.729C155.531 19.7859 155.742 20.9063 155.742 22.09V22.7559C155.742 23.8974 155.531 24.9966 155.108 26.0535C154.706 27.1105 154.104 28.0617 153.301 28.9073C152.497 29.7317 151.514 30.387 150.352 30.8732C149.189 31.3594 147.857 31.6025 146.357 31.6025ZM146.357 27.8292C147.435 27.8292 148.344 27.5967 149.084 27.1316C149.823 26.6454 150.384 26.0007 150.764 25.1974C151.145 24.373 151.335 23.4429 151.335 22.4071C151.335 21.3502 151.134 20.4201 150.732 19.6168C150.352 18.7924 149.781 18.1477 149.02 17.6826C148.28 17.1964 147.392 16.9533 146.357 16.9533C145.321 16.9533 144.422 17.1964 143.661 17.6826C142.922 18.1477 142.351 18.7924 141.949 19.6168C141.548 20.4201 141.347 21.3502 141.347 22.4071C141.347 23.4429 141.537 24.373 141.918 25.1974C142.319 26.0007 142.89 26.6454 143.63 27.1316C144.37 27.5967 145.279 27.8292 146.357 27.8292ZM158.65 37.3416V13.7825H162.138V21.2022L161.599 21.1705C161.684 19.416 162.043 17.9469 162.677 16.7631C163.332 15.5793 164.199 14.7021 165.277 14.1313C166.355 13.5394 167.56 13.2435 168.892 13.2435C170.118 13.2435 171.217 13.4655 172.19 13.9094C173.183 14.3533 174.029 14.9769 174.726 15.7801C175.445 16.5834 175.994 17.5241 176.375 18.6022C176.755 19.6591 176.946 20.8006 176.946 22.0266V22.6925C176.946 23.9397 176.755 25.1023 176.375 26.1804C176.016 27.2373 175.477 28.178 174.758 29.0024C174.06 29.8057 173.215 30.4398 172.221 30.9049C171.228 31.3488 170.118 31.5707 168.892 31.5707C167.602 31.5707 166.419 31.3065 165.341 30.778C164.284 30.2284 163.428 29.3935 162.772 28.2731C162.117 27.1316 161.747 25.6625 161.662 23.8657L163.058 25.9901V37.3416H158.65ZM167.782 27.8609C168.733 27.8609 169.558 27.6284 170.255 27.1633C170.974 26.6983 171.534 26.0535 171.936 25.2291C172.337 24.3836 172.538 23.4323 172.538 22.3754C172.538 21.2762 172.337 20.325 171.936 19.5217C171.534 18.7184 170.974 18.0948 170.255 17.6509C169.558 17.1859 168.733 16.9533 167.782 16.9533C166.915 16.9533 166.112 17.1436 165.372 17.5241C164.654 17.9046 164.062 18.4648 163.597 19.2046C163.153 19.9445 162.931 20.8323 162.931 21.8681V23.1364C162.931 24.1299 163.163 24.9755 163.628 25.6731C164.093 26.3706 164.696 26.9097 165.436 27.2902C166.176 27.6707 166.958 27.8609 167.782 27.8609ZM187.353 31.222C185.767 31.222 184.457 31.0211 183.421 30.6195C182.406 30.1967 181.645 29.4992 181.138 28.5268C180.631 27.5333 180.377 26.2015 180.377 24.5316L180.409 8.93121H184.531L184.499 24.8169C184.499 25.6625 184.721 26.3178 185.165 26.7828C185.63 27.2267 186.285 27.4487 187.131 27.4487H189.826V31.222H187.353ZM177.65 17.0168V13.7825H189.826V17.0168H177.65ZM193.398 31V13.7825H197.806V31H193.398ZM190.989 17.0802V13.7825H197.806V17.0802H190.989ZM195.016 11.7215C194.149 11.7215 193.504 11.4996 193.081 11.0556C192.68 10.5906 192.479 10.0199 192.479 9.34341C192.479 8.6247 192.68 8.04338 193.081 7.59947C193.504 7.15556 194.149 6.9336 195.016 6.9336C195.882 6.9336 196.516 7.15556 196.918 7.59947C197.32 8.04338 197.521 8.6247 197.521 9.34341C197.521 10.0199 197.32 10.5906 196.918 11.0556C196.516 11.4996 195.882 11.7215 195.016 11.7215ZM210.21 31.6025C208.688 31.6025 207.346 31.3594 206.183 30.8732C205.02 30.387 204.037 29.7317 203.234 28.9073C202.431 28.0617 201.818 27.1105 201.395 26.0535C200.993 24.9966 200.793 23.8974 200.793 22.7559V22.09C200.793 20.9063 201.004 19.7859 201.427 18.729C201.871 17.6509 202.494 16.6997 203.298 15.8753C204.122 15.0297 205.116 14.3744 206.278 13.9094C207.441 13.4232 208.751 13.1801 210.21 13.1801C211.669 13.1801 212.979 13.4232 214.142 13.9094C215.304 14.3744 216.287 15.0297 217.091 15.8753C217.915 16.6997 218.539 17.6509 218.961 18.729C219.384 19.7859 219.596 20.9063 219.596 22.09V22.7559C219.596 23.8974 219.384 24.9966 218.961 26.0535C218.56 27.1105 217.957 28.0617 217.154 28.9073C216.351 29.7317 215.368 30.387 214.205 30.8732C213.043 31.3594 211.711 31.6025 210.21 31.6025ZM210.21 27.8292C211.288 27.8292 212.197 27.5967 212.937 27.1316C213.677 26.6454 214.237 26.0007 214.617 25.1974C214.998 24.373 215.188 23.4429 215.188 22.4071C215.188 21.3502 214.987 20.4201 214.586 19.6168C214.205 18.7924 213.634 18.1477 212.873 17.6826C212.134 17.1964 211.246 16.9533 210.21 16.9533C209.174 16.9533 208.276 17.1964 207.515 17.6826C206.775 18.1477 206.204 18.7924 205.803 19.6168C205.401 20.4201 205.2 21.3502 205.2 22.4071C205.2 23.4429 205.39 24.373 205.771 25.1974C206.172 26.0007 206.743 26.6454 207.483 27.1316C208.223 27.5967 209.132 27.8292 210.21 27.8292ZM222.503 31V13.7825H225.991V21.1705H225.674C225.674 19.416 225.907 17.9574 226.372 16.7948C226.837 15.611 227.524 14.7232 228.433 14.1313C229.363 13.5394 230.515 13.2435 231.889 13.2435H232.079C234.13 13.2435 235.683 13.9094 236.74 15.2411C237.797 16.5517 238.326 18.5176 238.326 21.1388V31H233.918V20.7583C233.918 19.7014 233.612 18.8453 232.999 18.19C232.407 17.5347 231.583 17.207 230.526 17.207C229.448 17.207 228.57 17.5452 227.894 18.2217C227.239 18.877 226.911 19.7648 226.911 20.8851V31H222.503ZM248.359 31.539C245.992 31.539 244.132 31.0423 242.779 30.0488C241.447 29.0341 240.749 27.6389 240.686 25.8633H244.65C244.713 26.4552 245.041 26.9942 245.633 27.4804C246.224 27.9666 247.154 28.2097 248.423 28.2097C249.48 28.2097 250.315 28.0194 250.928 27.6389C251.562 27.2585 251.879 26.7406 251.879 26.0853C251.879 25.5145 251.636 25.06 251.15 24.7218C250.685 24.3836 249.881 24.1616 248.74 24.0559L247.218 23.8974C245.294 23.686 243.815 23.1364 242.779 22.2486C241.743 21.3608 241.225 20.177 241.225 18.6973C241.225 17.5135 241.521 16.52 242.113 15.7167C242.705 14.9135 243.519 14.311 244.554 13.9094C245.611 13.4866 246.816 13.2752 248.169 13.2752C250.283 13.2752 251.995 13.7403 253.306 14.6704C254.616 15.6005 255.303 16.9639 255.367 18.7607H251.403C251.361 18.1688 251.065 17.6615 250.516 17.2387C249.966 16.8159 249.173 16.6046 248.137 16.6046C247.207 16.6046 246.489 16.7842 245.981 17.1436C245.474 17.5029 245.22 17.968 245.22 18.5387C245.22 19.0883 245.421 19.5111 245.823 19.8071C246.246 20.103 246.922 20.3038 247.852 20.4095L249.374 20.5681C251.403 20.7794 252.989 21.3396 254.13 22.2486C255.293 23.1575 255.874 24.3836 255.874 25.9267C255.874 27.0682 255.557 28.0617 254.923 28.9073C254.31 29.7317 253.443 30.3764 252.323 30.8415C251.203 31.3065 249.881 31.539 248.359 31.539Z" fill="#EBEFE0"/>
</svg>
