<svg width="145" height="40" viewBox="0 0 145 40" fill="none" xmlns="http://www.w3.org/2000/svg">
<g clip-path="url(#clip0_2477_1848)">
<path d="M32.9624 31.423L21.7184 35.4599C21.3863 35.5783 21.0274 35.6001 20.6834 35.5229C20.3394 35.4456 20.0244 35.2725 19.7748 35.0234C19.5252 34.7744 19.3513 34.4598 19.2733 34.1159C19.1952 33.7721 19.2163 33.4132 19.3339 33.0808L20.8868 28.7076C21.0345 28.2992 21.0347 27.852 20.8872 27.4435C20.7397 27.035 20.4539 26.691 20.0794 26.4711L12.0057 21.7964C11.7688 21.6589 11.5046 21.5753 11.2318 21.5516C10.959 21.5279 10.6843 21.5646 10.4273 21.6592C10.1703 21.7538 9.93732 21.9039 9.74496 22.0988C9.5526 22.2937 9.40559 22.5286 9.31441 22.7868L3.61973 38.754C2.91731 40.7321 0 40.2261 0 38.1296L0.0565162 10.3263C0.0573995 9.9431 0.176502 9.56945 0.397574 9.25638C0.618647 8.94332 0.930923 8.70608 1.2918 8.57704L12.5358 4.55362C12.8677 4.4344 13.2266 4.41185 13.5708 4.4886C13.915 4.56536 14.2303 4.73826 14.4801 4.98719C14.7299 5.23613 14.9039 5.55087 14.9818 5.8948C15.0597 6.23873 15.0384 6.59771 14.9203 6.92999L13.7065 10.3452C13.562 10.7558 13.5655 11.204 13.7164 11.6124C13.8672 12.0207 14.156 12.3635 14.5327 12.5816L22.6065 17.2536C22.8432 17.3916 23.1075 17.4756 23.3804 17.4996C23.6533 17.5236 23.9282 17.4869 24.1854 17.3923C24.4425 17.2977 24.6756 17.1474 24.8678 16.9522C25.0601 16.757 25.2069 16.5218 25.2977 16.2632L30.6372 1.2407C31.3369 -0.731985 34.2596 -0.226031 34.2542 1.86776L34.1977 29.6737C34.1976 30.0572 34.0788 30.4312 33.8576 30.7444C33.6364 31.0576 33.3237 31.2947 32.9624 31.423Z" fill="#EBEFE0"/>
<path d="M46.8734 28.32V7.18026H51.0933V11.3221L50.5954 10.765C51.0601 9.50077 51.9421 8.4328 53.0956 7.73735C54.3027 7.02977 55.6825 6.67109 57.0813 6.70122C58.5268 6.6723 59.9547 7.02208 61.2231 7.71582C62.4031 8.3758 63.3766 9.35032 64.0355 10.5309C64.7313 11.7986 65.0821 13.2268 65.0528 14.6727V28.3092H60.6687V15.8541C60.6967 14.9148 60.4953 13.9827 60.0821 13.1387C59.7088 12.4153 59.1315 11.8173 58.4216 11.419C57.6689 11.0214 56.8305 10.8136 55.9792 10.8136C55.128 10.8136 54.2896 11.0214 53.5369 11.419C52.823 11.8219 52.245 12.428 51.8764 13.1602C51.4673 13.9971 51.266 14.9202 51.2898 15.8515V28.3173L46.8734 28.32Z" fill="#EBEFE0"/>
<path d="M74.7574 28.7965C73.4606 28.8248 72.1737 28.5646 70.9897 28.0348C69.97 27.5785 69.097 26.8481 68.468 25.9249C67.8555 24.978 67.5423 23.8686 67.5691 22.7412C67.5373 21.6418 67.8133 20.5553 68.3658 19.6043C68.9183 18.6533 69.7255 17.8756 70.6963 17.3587C71.9447 16.6728 73.3085 16.2222 74.7198 16.0292L82.0669 14.8181V18.2791L75.581 19.4121C74.4076 19.6202 73.5482 19.9916 73.0027 20.5263C72.7307 20.7921 72.5171 21.1118 72.3758 21.465C72.2344 21.8181 72.1684 22.1969 72.1819 22.577C72.1719 22.9544 72.2496 23.3289 72.4088 23.6712C72.5681 24.0135 72.8045 24.3142 73.0996 24.5497C73.7708 25.078 74.6092 25.3482 75.4625 25.3113C76.5619 25.3352 77.6479 25.0658 78.6086 24.5308C79.4813 24.0349 80.2038 23.3124 80.6997 22.4397C81.1991 21.5513 81.4553 20.5469 81.4425 19.5278V14.0969C81.4551 13.6109 81.3578 13.1283 81.1579 12.6852C80.958 12.242 80.6606 11.8497 80.2879 11.5375C79.5218 10.8737 78.5001 10.5417 77.2226 10.5417C76.129 10.5182 75.0557 10.8392 74.1546 11.4595C73.2998 12.049 72.629 12.8681 72.2196 13.8224L68.546 11.9869C68.9517 10.9265 69.6094 9.98064 70.4622 9.2311C71.3713 8.4228 72.4251 7.79366 73.5679 7.37683C74.7734 6.92984 76.0499 6.70464 77.3356 6.71209C78.8661 6.68241 80.3831 7.00275 81.7708 7.64865C82.9935 8.22017 84.0334 9.12024 84.7743 10.2484C85.5033 11.3976 85.8778 12.7362 85.8507 14.0969V28.3201H81.6336V24.4905L82.5324 24.6089C82.0469 25.4604 81.4082 26.215 80.6486 26.8345C79.8678 27.4676 78.9813 27.9577 78.03 28.2824C76.9755 28.6353 75.8693 28.809 74.7574 28.7965Z" fill="#EBEFE0"/>
<path d="M89.0964 28.3202V24.687L101.525 9.64291L102.227 11.1662H89.6831V7.18042H106.135V10.7652L93.8653 25.8361L93.1602 24.2752H106.172V28.3121L89.0964 28.3202Z" fill="#EBEFE0"/>
<path d="M107.502 28.3202V24.687L119.927 9.64291L120.633 11.1662H108.089V7.18042H124.538V10.7652L112.268 25.8361L111.566 24.2752H124.578V28.3121L107.502 28.3202Z" fill="#EBEFE0"/>
<path d="M133.343 28.7965C132.046 28.8242 130.76 28.5641 129.575 28.0348C128.556 27.5793 127.684 26.8487 127.056 25.9249C126.443 24.9785 126.129 23.8688 126.158 22.7412C126.127 21.6424 126.404 20.5569 126.956 19.6063C127.507 18.6556 128.313 17.8774 129.282 17.3587C130.535 16.6712 131.903 16.2205 133.319 16.0292L140.65 14.802V18.2791L134.164 19.4121C132.991 19.6202 132.131 19.9916 131.586 20.5263C131.314 20.7925 131.101 21.1123 130.96 21.4653C130.818 21.8184 130.752 22.1969 130.765 22.577C130.756 22.9543 130.833 23.3286 130.993 23.6708C131.152 24.013 131.388 24.3138 131.683 24.5497C132.355 25.0784 133.194 25.3486 134.048 25.3113C135.147 25.3358 136.232 25.0663 137.192 24.5308C138.064 24.0349 138.787 23.3124 139.283 22.4397C139.782 21.5513 140.038 20.5469 140.025 19.5278V14.0969C140.038 13.6107 139.94 13.128 139.74 12.6848C139.539 12.2416 139.241 11.8494 138.868 11.5375C138.099 10.8737 137.076 10.5417 135.8 10.5417C134.707 10.5182 133.633 10.8392 132.732 11.4595C131.877 12.0494 131.206 12.8683 130.795 13.8224L127.124 11.9869C127.53 10.9253 128.19 9.97923 129.045 9.2311C129.951 8.42396 131.001 7.79488 132.14 7.37683C133.346 6.93007 134.622 6.70488 135.908 6.71209C137.438 6.68241 138.955 7.00275 140.343 7.64865C141.568 8.21862 142.61 9.11891 143.352 10.2484C144.082 11.3971 144.457 12.736 144.428 14.0969V28.3201H140.214V24.4905L141.113 24.6089C140.627 25.4603 139.988 26.2148 139.229 26.8345C138.449 27.4681 137.564 27.9583 136.613 28.2824C135.559 28.6345 134.454 28.8082 133.343 28.7965Z" fill="#EBEFE0"/>
</g>
<defs>
<clipPath id="clip0_2477_1848">
<rect width="144.442" height="40" fill="white"/>
</clipPath>
</defs>
</svg>
