<svg width="35" height="80" viewBox="0 0 35 80" fill="none" xmlns="http://www.w3.org/2000/svg">
<path fill-rule="evenodd" clip-rule="evenodd" d="M0 78.5003C12.3036 76.7967 21.2607 67.1169 25.3472 53.886C27.026 48.41 27.2689 42.3366 26.6836 35.9867C25.6012 24.6475 20.3992 14.8018 12.8117 7.62214C12.7785 7.58895 12.7675 7.57789 12.7564 7.61108C12.7343 7.64427 12.6681 7.67745 12.6349 7.69958C12.5908 7.7217 12.5797 7.69958 12.6129 7.75489C20.6643 15.1337 25.8332 26.8711 26.3964 38.7302C27.2689 55.6671 19.0518 70.668 6.73716 75.8342C4.67184 76.7082 2.50711 77.3719 0.254023 77.7149C0.0993994 77.914 0.0110445 78.1905 0 78.5003Z" fill="#EBEFE0"/>
<path fill-rule="evenodd" clip-rule="evenodd" d="M30.6707 50.2132C29.6656 51.408 28.0642 52.5806 26.3412 52.127C26.2528 52.2598 25.8 52.9235 25.7338 53.0231C25.6564 53.1448 25.5129 53.2665 25.4024 53.1669C25.3362 53.1227 25.2809 53.0231 25.3472 52.8682C25.6012 52.5585 25.8442 52.2377 26.1314 51.9058C26.6394 49.2176 27.3794 47.4254 28.9256 45.6112C30.7148 43.5314 32.5482 42.6021 33.6858 42.2149C33.8515 42.1707 34.0061 42.1264 34.1718 42.0711C34.2822 43.111 33.8073 44.6266 33.4318 45.4895C32.7029 47.2595 31.9076 48.8082 30.6707 50.2132Z" fill="#EBEFE0"/>
<path fill-rule="evenodd" clip-rule="evenodd" d="M15.871 12.3459C16.0146 12.4012 16.854 12.6224 16.9534 12.4565C16.9865 12.4123 16.9423 12.2463 16.865 12.2353C16.5558 12.2021 16.2134 12.1799 15.9152 12.1136C15.374 10.4099 13.8719 9.66873 12.4914 9.3811C10.8347 9.04922 9.01234 9.5581 7.05745 9.83467C6.95805 9.85679 6.84761 9.86785 6.75925 9.86785C6.79239 9.93423 6.83656 9.97848 6.88074 10.0449C7.69804 11.1622 8.9792 12.191 10.2272 12.6999C11.0666 13.0539 12.0717 13.253 13.0546 13.2198C14.0928 13.1756 14.9653 12.9433 15.871 12.3459Z" fill="#EBEFE0"/>
<path fill-rule="evenodd" clip-rule="evenodd" d="M12.6349 7.68852C12.5687 7.71064 12.5687 7.68852 12.4472 7.62214C12.2153 7.40089 12.0164 7.26814 11.7845 7.05795C10.4592 7.06901 9.20009 6.67076 8.00728 5.87425C7.47715 5.52024 6.94701 5.0888 6.50523 4.56886C5.44495 3.42941 4.59452 1.75896 4.20797 0.232316C4.18588 0.143815 4.17483 0.0885009 4.16379 0C4.26319 0.0442505 4.35154 0.0885022 4.45094 0.132753C6.59358 0.995637 8.66996 1.39389 10.3929 3.06435C11.5636 4.18167 12.1711 5.53131 11.9281 6.8367C12.1932 7.04689 12.4693 7.24601 12.7233 7.48939C12.8337 7.58895 12.7012 7.68852 12.6349 7.68852Z" fill="#EBEFE0"/>
<path fill-rule="evenodd" clip-rule="evenodd" d="M20.4324 19.4813C20.576 19.5587 21.3822 19.9791 21.5037 19.8353C21.5589 19.78 21.5368 19.6029 21.4595 19.5698C21.1613 19.4591 20.8079 19.3817 20.5097 19.2489C20.3992 18.0431 19.7255 16.9147 18.3891 16.1404C16.3459 15.0562 14.0266 15.2332 11.8397 15.0452C11.7293 15.0341 11.6299 15.0341 11.5305 15.023C11.5636 15.0894 11.5968 15.1447 11.6188 15.2111C12.3478 16.4722 13.5295 17.8329 14.7334 18.6073C15.5397 19.1494 16.5337 19.5587 17.5277 19.7578C18.5769 19.968 19.4715 19.8463 20.4324 19.4813Z" fill="#EBEFE0"/>
<path fill-rule="evenodd" clip-rule="evenodd" d="M31.1345 38.0886C30.4719 39.582 29.2791 41.2193 27.534 41.3299C27.4788 41.4848 27.1585 42.2039 27.1143 42.3145C27.0812 42.4694 26.9707 42.6353 26.8272 42.5689C26.7609 42.5468 26.6946 42.4583 26.7057 42.3034C26.8713 41.9052 27.0812 41.5954 27.28 41.1861C27.1254 38.4426 27.28 36.4402 28.3292 34.1835C29.522 31.5838 31.1566 30.0903 32.1617 29.3602C32.2832 29.2495 32.4267 29.1611 32.5703 29.0725C32.8023 30.1346 32.7249 31.7829 32.5814 32.7343C32.3273 34.6592 31.9187 36.3517 31.1345 38.0886Z" fill="#EBEFE0"/>
<path fill-rule="evenodd" clip-rule="evenodd" d="M29.1796 27.0702C28.8925 28.6632 28.1746 30.2673 26.5842 30.9643C26.5621 31.1302 26.3854 31.9046 26.3633 32.0263C26.3633 32.1922 26.3081 32.3803 26.1534 32.3581C26.1093 32.3471 25.9988 32.3028 25.9878 32.1369C26.054 31.7165 26.1755 31.2408 26.2528 30.7873C25.7227 28.8513 25.4356 27.0813 25.5239 25.1896C25.6675 22.5235 26.6615 20.2114 28.2298 18.3529C28.3513 18.2201 28.4397 18.0763 28.5501 17.9546C28.9919 18.8728 29.2791 20.4437 29.3564 21.384C29.522 23.2868 29.511 25.2006 29.1796 27.0702Z" fill="#EBEFE0"/>
<path fill-rule="evenodd" clip-rule="evenodd" d="M25.1705 17.0143C25.2147 18.6516 24.8171 20.488 23.4475 21.55C23.4586 21.7159 23.4917 22.5124 23.4917 22.623C23.5138 22.7779 23.5028 22.966 23.3481 22.9992C23.2929 22.9992 23.1935 22.9881 23.1604 22.8332C23.1272 22.4239 23.1162 21.7933 23.0941 21.3398C21.9234 19.3485 21.2939 17.1802 21.2718 14.7022C21.2276 11.837 21.9344 10.0117 22.4977 8.86115C22.575 8.70628 22.6523 8.5514 22.7296 8.39652C23.3481 9.14878 23.9335 10.5869 24.1986 11.4719C24.7287 13.2641 25.1153 15.1337 25.1705 17.0143Z" fill="#EBEFE0"/>
<path fill-rule="evenodd" clip-rule="evenodd" d="M19.096 7.83233C19.4494 9.37003 19.35 11.6268 18.2014 12.5561C18.2456 12.7552 18.345 13.4411 18.356 13.596C18.4002 13.7619 18.4333 13.9168 18.3008 13.9831C18.2456 14.0053 18.2014 14.0053 18.1351 13.8615C18.0578 13.43 18.0357 13.076 17.9695 12.6335C16.3349 10.8856 15.4071 9.15984 14.888 6.80351C14.3689 4.33654 14.4462 2.37846 14.6671 0.995635C14.6892 0.829696 14.7334 0.663758 14.7776 0.486756C16.2134 1.63727 17.2295 3.15285 18.0909 4.87861C18.5548 5.81893 18.9193 6.78138 19.096 7.83233Z" fill="#EBEFE0"/>
<path fill-rule="evenodd" clip-rule="evenodd" d="M24.0992 28.8955C24.2317 29.0172 24.9606 29.7142 25.1374 29.6257C25.1815 29.5814 25.2147 29.3491 25.1374 29.3049C24.8612 29.0836 24.5078 28.9177 24.2317 28.7075C24.3201 27.38 24.0219 26.0303 22.818 24.7692C20.9625 22.966 18.4996 22.3575 16.2576 21.4283C16.1581 21.384 16.0587 21.3287 15.9373 21.2845C15.9593 21.3619 15.9704 21.4504 16.0035 21.5278C16.4453 23.0766 17.3289 24.8798 18.4002 26.0967C19.096 26.9153 20.0348 27.7008 21.0177 28.2207C22.0449 28.7739 23.0168 28.9509 24.0992 28.8955Z" fill="#EBEFE0"/>
<path fill-rule="evenodd" clip-rule="evenodd" d="M25.6454 39.7037C25.7448 39.8807 26.3302 40.8321 26.5179 40.7879C26.5952 40.7879 26.6725 40.5555 26.6173 40.467C26.3743 40.1462 26.0651 39.8918 25.8552 39.5599C26.2308 38.343 26.054 36.5841 25.1484 34.9025C23.7126 32.4466 21.6141 31.2519 19.582 29.5372C19.4936 29.4487 19.4052 29.3712 19.3058 29.2717C19.2948 29.3491 19.2838 29.4376 19.2948 29.5372C19.339 31.2187 19.7808 33.3317 20.5649 34.9247C21.073 35.9977 21.824 37.0708 22.6855 37.9669C23.5801 38.863 24.5299 39.3829 25.6454 39.7037Z" fill="#EBEFE0"/>
<path fill-rule="evenodd" clip-rule="evenodd" d="M24.6293 50.3017C24.7066 50.5119 25.1042 51.6403 25.303 51.6845C25.3693 51.6735 25.5018 51.5075 25.4466 51.3858C25.2809 51.0097 25.0932 50.5783 24.9385 50.1911C25.6233 49.5384 25.8552 47.7241 25.303 45.8213C24.3863 43.0336 22.3431 40.9427 20.6974 38.6306C20.6201 38.52 20.5428 38.4094 20.4655 38.2988C20.4434 38.3762 20.4324 38.4647 20.4103 38.5532C20.1231 40.1794 20.1452 42.3366 20.587 44.0956C20.8852 45.2682 21.4043 46.5625 22.078 47.6688C22.7738 48.8414 23.6022 49.649 24.6293 50.3017Z" fill="#EBEFE0"/>
<path fill-rule="evenodd" clip-rule="evenodd" d="M27.0922 62.7029C25.8442 63.5215 23.6132 64.141 22.078 63.1343C21.9565 63.2228 21.3159 63.61 21.2386 63.6764C21.1282 63.787 20.9736 63.8645 20.8742 63.7096C20.8189 63.6432 20.7858 63.5326 20.8963 63.4109C21.2165 63.1896 21.57 63.0458 21.9123 62.8246C23.0831 60.3908 24.3421 58.7425 26.2749 57.5256C28.4838 56.1096 30.3283 56.0875 31.51 56.0875C31.6757 56.0875 31.8414 56.0985 32.007 56.0985C31.7199 58.4991 28.7489 61.6741 27.0922 62.7029Z" fill="#EBEFE0"/>
<path fill-rule="evenodd" clip-rule="evenodd" d="M20.9625 60.8223C20.9736 60.9771 21.0509 61.663 21.1613 62.0834C21.1945 62.2051 21.2055 62.3821 21.3712 62.3157C21.4374 62.3046 21.5037 62.1608 21.5037 62.0945C21.4264 61.6851 21.3601 61.2205 21.327 60.8112C22.0891 60.3244 22.6855 58.7314 22.807 56.7733C22.6744 53.8196 21.3491 51.1425 20.2888 48.3547C20.2557 48.233 20.2115 48.1002 20.1673 47.9675C20.1231 48.0339 20.101 48.1002 20.0569 48.1666C19.35 49.6269 18.8088 51.6735 18.7647 53.5209C18.7205 54.7267 18.8972 56.1317 19.2506 57.4371C19.6261 58.7757 20.1784 59.8266 20.9625 60.8223Z" fill="#EBEFE0"/>
<path fill-rule="evenodd" clip-rule="evenodd" d="M20.333 72.8031C18.8972 73.0907 16.9534 73.0243 15.7385 71.4755C15.4292 71.5198 14.9322 71.5972 14.6119 71.6194C14.5236 71.6304 14.4573 71.564 14.4242 71.4534C14.4021 71.376 14.4242 71.2764 14.5677 71.199C14.9322 71.1215 15.2967 71.1215 15.6832 71.0552C17.2957 69.1635 18.8199 68.1014 21.0177 67.7032C23.558 67.2386 25.7117 67.8913 26.8603 68.367C27.0149 68.4223 27.1806 68.4886 27.3242 68.5661C26.9155 69.4843 25.7227 70.4246 24.9717 70.8782C23.5359 71.8295 22.067 72.5154 20.333 72.8031Z" fill="#EBEFE0"/>
<path fill-rule="evenodd" clip-rule="evenodd" d="M15.1973 68.8095C15.1752 68.9754 15.1531 69.6392 15.1531 70.0817C15.1641 70.2033 15.131 70.3693 15.2967 70.3803C15.374 70.3803 15.4623 70.2808 15.4623 70.2033C15.4955 69.794 15.4734 69.3515 15.5397 68.9311C16.3901 68.6656 17.5166 67.3713 18.0357 65.5902C18.6321 62.7361 17.9805 59.7934 17.6712 56.7733C17.6492 56.6406 17.6602 56.5078 17.6492 56.364C17.5939 56.4193 17.5277 56.4746 17.4724 56.53C16.4343 57.6694 15.3961 59.4284 14.8991 61.1541C14.5567 62.2825 14.38 63.6764 14.38 65.015C14.4021 66.4199 14.6892 67.6036 15.1973 68.8095Z" fill="#EBEFE0"/>
<path fill-rule="evenodd" clip-rule="evenodd" d="M7.15686 74.6173C7.07954 74.739 6.98015 75.2921 6.8697 75.7125C6.83657 75.8121 6.7703 75.967 6.92492 76.0223C7.00223 76.0555 7.10163 75.9891 7.12372 75.9227C7.2673 75.5687 7.2673 75.1926 7.44401 74.8386C8.27235 75.0377 9.70814 73.9868 10.6469 72.615C11.9502 70.2476 12.0938 67.4709 12.6018 64.6499C12.6129 64.5172 12.657 64.3955 12.6791 64.2627C12.6129 64.2738 12.5466 64.318 12.4803 64.3402C11.2323 64.9707 9.80754 66.0881 8.89085 67.4598C8.26131 68.3448 7.67595 69.5728 7.34461 70.8007C7.00223 72.0951 6.99119 73.323 7.15686 74.6173Z" fill="#EBEFE0"/>
<path fill-rule="evenodd" clip-rule="evenodd" d="M11.6741 79.8831C10.2051 79.684 8.30549 79.0092 7.4661 77.1285C7.1679 77.04 6.64881 76.9847 6.33956 76.8962C6.2512 76.8852 6.20703 76.7856 6.19598 76.6639C6.19598 76.5975 6.24016 76.498 6.39478 76.4759C6.75925 76.5312 7.12372 76.6418 7.53237 76.686C9.66397 75.4249 11.3869 74.8496 13.629 75.1705C16.2023 75.5355 18.0799 76.8299 19.0849 77.6596C19.2285 77.7812 19.3721 77.8919 19.5046 78.0135C18.8861 78.7769 17.4945 79.2858 16.6662 79.507C15.0427 79.9606 13.4522 80.1376 11.6741 79.8831Z" fill="#EBEFE0"/>
</svg>
