<svg width="79" height="34" viewBox="0 0 79 34" fill="none" xmlns="http://www.w3.org/2000/svg">
<path d="M11.0747 7.11133C11.0747 7.11133 5.97441 8.91818 3.01622 10.1997M8.4229 29.8222C5.68645 29.8222 1.98195 23.6376 1.53957 21.852C0.0232538 15.7317 9.49556 12.9176 13.9786 11.8737M8.4229 29.8222C11.1593 29.8222 13.993 23.3976 14.8778 21.1657C16.0709 18.1559 15.732 14.5276 13.9786 11.8737M8.4229 29.8222C5.68645 29.8222 6.78431 24.6886 8.4229 23.0876M13.9786 11.8737L17.2385 11.175" stroke="white" stroke-width="2.64938"/>
<path d="M25.5238 19.5371L27.1112 15.3604H27.1453L28.6815 19.5371H25.5238ZM25.7799 12.5547L21.1714 23.937H23.8682L24.824 21.4023H29.3813L30.303 23.937H33.0851L28.5279 12.5547H25.7799Z" fill="white"/>
<path d="M34.9496 19.6062C34.9496 19.2768 34.9837 18.9526 35.052 18.6338C35.1203 18.3149 35.2341 18.0333 35.3934 17.7889C35.564 17.5444 35.7859 17.3478 36.059 17.199C36.3321 17.0396 36.6735 16.9599 37.0831 16.9599C37.4928 16.9599 37.8341 17.0396 38.1072 17.199C38.3917 17.3478 38.6136 17.5444 38.7729 17.7889C38.9436 18.0333 39.0631 18.3149 39.1313 18.6338C39.1996 18.9526 39.2338 19.2768 39.2338 19.6062C39.2338 19.9357 39.1996 20.2598 39.1313 20.5787C39.0631 20.8869 38.9436 21.1685 38.7729 21.4236C38.6136 21.668 38.3917 21.8646 38.1072 22.0134C37.8341 22.1622 37.4928 22.2366 37.0831 22.2366C36.6735 22.2366 36.3321 22.1622 36.059 22.0134C35.7859 21.8646 35.564 21.668 35.3934 21.4236C35.2341 21.1685 35.1203 20.8869 35.052 20.5787C34.9837 20.2598 34.9496 19.9357 34.9496 19.6062ZM32.5259 19.6062C32.5259 20.2651 32.634 20.8603 32.8502 21.3917C33.0664 21.9231 33.3736 22.3801 33.7719 22.7627C34.1701 23.1346 34.648 23.4216 35.2056 23.6235C35.7632 23.8255 36.389 23.9264 37.0831 23.9264C37.7773 23.9264 38.4031 23.8255 38.9607 23.6235C39.5296 23.4216 40.0132 23.1346 40.4115 22.7627C40.8097 22.3801 41.117 21.9231 41.3332 21.3917C41.5494 20.8603 41.6575 20.2651 41.6575 19.6062C41.6575 18.9473 41.5494 18.3521 41.3332 17.8208C41.117 17.2787 40.8097 16.8217 40.4115 16.4498C40.0132 16.0672 39.5296 15.7749 38.9607 15.573C38.4031 15.3604 37.7773 15.2541 37.0831 15.2541C36.389 15.2541 35.7632 15.3604 35.2056 15.573C34.648 15.7749 34.1701 16.0672 33.7719 16.4498C33.3736 16.8217 33.0664 17.2787 32.8502 17.8208C32.634 18.3521 32.5259 18.9473 32.5259 19.6062Z" fill="white"/>
<path d="M42.3799 15.6952V23.937H44.8037V20.2226C44.8037 19.8507 44.8435 19.5053 44.9231 19.1864C45.0028 18.8676 45.1337 18.5913 45.3157 18.3575C45.5092 18.113 45.7595 17.9217 46.0667 17.7836C46.374 17.6454 46.7495 17.5763 47.1932 17.5763C47.3412 17.5763 47.4948 17.5869 47.6541 17.6082C47.8134 17.6188 47.9499 17.6348 48.0637 17.656V15.5517C47.8703 15.4986 47.6939 15.472 47.5346 15.472C47.2274 15.472 46.9315 15.5145 46.6471 15.5995C46.3626 15.6846 46.0952 15.8068 45.8448 15.9662C45.5945 16.115 45.3726 16.301 45.1792 16.5242C44.9857 16.7367 44.8321 16.9705 44.7183 17.2256H44.6842V15.6952H42.3799Z" fill="white"/>
<path d="M51.2231 15.5783V12.5547H48.7994V15.5783V17.0928V21.955C48.7994 22.3694 48.8734 22.7042 49.0213 22.9593C49.1692 23.2144 49.3684 23.411 49.6187 23.5491C49.8804 23.6873 50.1763 23.7776 50.5063 23.8201C50.8476 23.8733 51.2061 23.8998 51.5816 23.8998C51.8205 23.8998 52.0652 23.8945 52.3155 23.8839C52.5658 23.8733 52.7934 23.852 52.9982 23.8201V22.0666C52.8845 22.0878 52.765 22.1038 52.6398 22.1144C52.5146 22.125 52.3838 22.1303 52.2472 22.1303C51.8376 22.1303 51.5645 22.0666 51.4279 21.939C51.2914 21.8115 51.2231 21.5564 51.2231 21.1738V17.0928H52.9982V15.5783H51.2231Z" fill="white"/>
<path d="M53.7891 12.5547V23.937H56.2128V19.6169C56.2128 18.7773 56.3607 18.1768 56.6566 17.8154C56.9524 17.4435 57.4303 17.2575 58.0903 17.2575C58.6707 17.2575 59.0746 17.4275 59.3022 17.7676C59.5298 18.0971 59.6436 18.6019 59.6436 19.2821V23.937H62.0673V18.8676C62.0673 18.3575 62.0161 17.8952 61.9137 17.4807C61.8226 17.0556 61.6576 16.6995 61.4187 16.4126C61.1797 16.115 60.8497 15.8865 60.4287 15.7271C60.0191 15.557 59.4899 15.472 58.8413 15.472C58.3862 15.472 57.9196 15.5836 57.4417 15.8068C56.9638 16.0193 56.5712 16.3647 56.264 16.843H56.2128V12.5547H53.7891Z" fill="white"/>
<path d="M63.1255 18.0121C63.1596 17.4807 63.3019 17.0396 63.5522 16.6889C63.8026 16.3382 64.1212 16.0565 64.5081 15.844C64.8949 15.6314 65.3273 15.4826 65.8053 15.3976C66.2945 15.302 66.7838 15.2541 67.2731 15.2541C67.7169 15.2541 68.1664 15.286 68.6215 15.3498C69.0767 15.4029 69.492 15.5145 69.8675 15.6846C70.243 15.8546 70.5503 16.0937 70.7892 16.4019C71.0282 16.6995 71.1477 17.0981 71.1477 17.5976V21.8859C71.1477 22.2579 71.1704 22.6139 71.2159 22.954C71.2615 23.2941 71.3525 23.7564 71.4663 23.9264H69.0198C68.9743 23.7989 68.9117 23.4641 68.8776 23.3366C68.8548 23.1984 68.8377 23.0603 68.8264 22.9221C68.4395 23.2941 67.9843 23.5544 67.4609 23.7032C66.9375 23.852 66.4026 23.9264 65.8565 23.9264C65.4354 23.9264 65.0429 23.8786 64.6787 23.7829C64.3146 23.6873 63.996 23.5385 63.7229 23.3366C63.4498 23.1346 63.2336 22.8796 63.0743 22.5714C62.9264 22.2632 62.8524 21.8965 62.8524 21.4714C62.8524 21.0038 62.9378 20.6212 63.1084 20.3236C63.2905 20.0154 63.5181 19.771 63.7912 19.5903C64.0757 19.4096 64.3943 19.2768 64.747 19.1917C65.1111 19.0961 65.4753 19.0217 65.8394 18.9686C66.2035 18.9154 66.562 18.8729 66.9147 18.841C67.2674 18.8091 67.5804 18.7613 67.8535 18.6975C68.1266 18.6338 68.3428 18.5434 68.5021 18.4265C68.6614 18.299 68.7353 18.1183 68.7239 17.8845C68.7239 17.6401 68.6784 17.4488 68.5874 17.3106C68.5078 17.1618 68.394 17.0502 68.246 16.9758C68.1095 16.8908 67.9445 16.8377 67.7511 16.8164C67.569 16.7845 67.3699 16.7686 67.1537 16.7686C66.6757 16.7686 66.3002 16.8643 66.0271 17.0556C65.754 17.2469 65.5947 17.5657 65.5492 18.0121H63.1255ZM68.7239 19.6859C68.6215 19.771 68.4907 19.84 68.3314 19.8932C68.1835 19.9357 68.0185 19.9729 67.8364 20.0048C67.6657 20.0366 67.4837 20.0632 67.2902 20.0845C67.0968 20.1057 66.9033 20.1323 66.7099 20.1642C66.5278 20.1961 66.3457 20.2386 66.1637 20.2917C65.993 20.3449 65.8394 20.4192 65.7028 20.5149C65.5777 20.5999 65.4753 20.7115 65.3956 20.8497C65.316 20.9878 65.2761 21.1632 65.2761 21.3758C65.2761 21.5777 65.316 21.7477 65.3956 21.8859C65.4753 22.024 65.5834 22.1356 65.7199 22.2207C65.8565 22.2951 66.0158 22.3482 66.1978 22.3801C66.3799 22.412 66.5676 22.4279 66.7611 22.4279C67.239 22.4279 67.6088 22.3535 67.8705 22.2047C68.1322 22.0559 68.3257 21.8806 68.4509 21.6786C68.576 21.4661 68.65 21.2535 68.6727 21.041C68.7069 20.8284 68.7239 20.6584 68.7239 20.5308V19.6859Z" fill="white"/>
<path d="M72.2287 15.6952V23.937H74.6524V20.2226C74.6524 19.8507 74.6922 19.5053 74.7719 19.1864C74.8515 18.8676 74.9824 18.5913 75.1644 18.3575C75.3579 18.113 75.6082 17.9217 75.9154 17.7836C76.2227 17.6454 76.5982 17.5763 77.042 17.5763C77.1899 17.5763 77.3435 17.5869 77.5028 17.6082C77.6621 17.6188 77.7987 17.6348 77.9125 17.656V15.5517C77.719 15.4986 77.5426 15.472 77.3833 15.472C77.0761 15.472 76.7802 15.5145 76.4958 15.5995C76.2113 15.6846 75.9439 15.8068 75.6936 15.9662C75.4432 16.115 75.2213 16.301 75.0279 16.5242C74.8344 16.7367 74.6808 16.9705 74.567 17.2256H74.5329V15.6952H72.2287Z" fill="white"/>
</svg>
