<svg width="148" height="40" viewBox="0 0 148 40" fill="none" xmlns="http://www.w3.org/2000/svg">
<path d="M30.4851 21.6471L29.7756 21.658L30.09 21.5532L30.4851 21.6471Z" fill="#EBEFE0"/>
<path d="M49.8206 32.5438L43.8877 34.0346L39.9346 31.2428L39.2252 30.7429L30.2188 24.3821L29.0837 23.5811L48.3014 29.5576L49.8206 32.5438Z" fill="#EBEFE0"/>
<path d="M49.8206 32.5438L43.8877 34.0346L39.9346 31.2428L39.2252 30.7429L30.2188 24.3821L29.0837 23.5811L48.3014 29.5576L49.8206 32.5438Z" fill="#EBEFE0"/>
<path d="M30.4863 21.6471L29.7769 21.658L30.0912 21.5532L30.4863 21.6471Z" fill="#EBEFE0"/>
<path d="M30.4863 21.6471L29.7769 21.658L30.0912 21.5532L30.4863 21.6471Z" fill="#EBEFE0"/>
<path d="M55.8874 25.2684L49.9195 29.0054L49.0071 28.7216L47.6625 28.3025L44.5978 27.3508L43.6417 27.0539L31.5183 23.282L29.5559 22.673L30.3723 22.6577H30.3745L34.4804 22.5988L52.9515 22.3215L55.8874 25.2684Z" fill="#EBEFE0"/>
<path d="M30.4851 21.6471L29.7756 21.658L30.09 21.5532L30.4851 21.6471Z" fill="#EBEFE0"/>
<path d="M59.0585 15.2297L54.0009 21.2979L53.3635 21.3067L51.96 21.3285L47.7493 21.3918L46.6295 21.4071L32.3865 21.6188L30.4853 21.6472L30.0902 21.5533L30.6272 21.3744H30.6294L34.5934 20.045H34.5956L55.0487 13.1909L59.0585 15.2297Z" fill="#EBEFE0"/>
<path d="M30.4851 21.6471L29.7756 21.658L30.09 21.5532L30.4851 21.6471Z" fill="#EBEFE0"/>
<path d="M28.5728 18.3505L29.28 18.3396L28.9679 18.4444L28.5728 18.3505Z" fill="#EBEFE0"/>
<path d="M9.2373 7.45378L15.1681 5.96509L19.1233 8.75475L19.8306 9.2568L28.8391 15.6154L29.972 16.4165L10.7566 10.4399L9.2373 7.45378Z" fill="#EBEFE0"/>
<path d="M9.2373 7.45378L15.1681 5.96509L19.1233 8.75475L19.8306 9.2568L28.8391 15.6154L29.972 16.4165L10.7566 10.4399L9.2373 7.45378Z" fill="#EBEFE0"/>
<path d="M28.5748 18.351L29.2821 18.3401L28.9699 18.4449L28.5748 18.351Z" fill="#EBEFE0"/>
<path d="M28.5748 18.351L29.2821 18.3401L28.9699 18.4449L28.5748 18.351Z" fill="#EBEFE0"/>
<path d="M3.1731 14.7316L9.14095 10.9946L10.0534 11.2784L11.398 11.6953L14.4627 12.6492L15.4166 12.9461L27.5422 16.718L29.5046 17.327L28.6882 17.3401H28.686H28.6838L24.5801 17.4012L6.109 17.6763L3.1731 14.7316Z" fill="#EBEFE0"/>
<path d="M57.8645 4.3677L54.7867 11.9268L54.6492 12.2608L53.7869 12.5511L48.2578 14.4022L47.1097 14.7863L32.5393 19.6693L30.4241 20.3788L29.9635 20.5337L27.3529 22.7537L15.8668 32.5197L14.9369 33.3098L10.4294 37.1429L1.19165 35.6324L4.27162 28.0732L4.40696 27.7393L5.27136 27.4489L10.8005 25.5957L11.9486 25.2137L26.519 20.3307L28.6342 19.6213V19.6191L29.0882 19.4685L31.7033 17.2464L43.1893 7.48041L44.1192 6.69023L48.6267 2.85718L57.8645 4.3677Z" fill="#EBEFE0"/>
<path d="M28.5739 18.351L29.2811 18.3401L28.969 18.4449L28.5739 18.351Z" fill="#EBEFE0"/>
<path d="M0.00012207 24.7684L5.05774 18.7023L5.69513 18.6914L7.09868 18.6717L11.3094 18.6084L12.4292 18.5909L26.6699 18.3792L28.5734 18.3508L28.9685 18.4447L28.4315 18.6237L28.4293 18.6259L24.4653 19.953H24.4631L4.00998 26.8093L0.00012207 24.7684Z" fill="#EBEFE0"/>
<path d="M28.5739 18.351L29.2811 18.3401L28.969 18.4449L28.5739 18.351Z" fill="#EBEFE0"/>
<path d="M65.5652 21.9619C65.5652 19.3371 67.5214 18.2476 71.3347 18.2476C75.6433 18.2476 77.5747 19.6095 77.5747 22.8286H74.9747C74.9747 21.1448 73.5385 20.6495 70.8395 20.6495C68.4871 20.6495 68.0414 21.2933 68.0414 21.9124C68.0414 22.6057 69.0814 23.101 71.8547 23.5962C75.3709 24.2152 77.7233 24.5867 77.7233 27.5829C77.7233 30.3067 75.7424 31.3714 72.0033 31.3714C67.5214 31.3714 65.5157 30.0095 65.5157 26.7905H68.1157C68.1157 28.4 69.8243 28.9448 72.3747 28.9448C74.4547 28.9448 75.2471 28.4248 75.2471 27.6571C75.2471 26.5429 73.8604 26.4933 71.2604 26.0476C68.5614 25.6267 65.5652 24.9086 65.5652 21.9619ZM87.3913 30.579C86.0541 34.3924 85.5094 36.6952 81.9437 36.6952C79.2694 36.6952 78.1056 34.64 78.1056 31.9162H80.5818C80.5818 33.8476 81.2256 34.2933 81.9684 34.2933C83.0332 34.2933 83.5037 33.179 84.0732 31.5448L84.296 30.8267L77.8332 18.619H81.0522L85.5837 27.1371L88.5551 18.619H91.576L87.3913 30.579ZM101.892 23.101C101.892 20.8476 99.9355 20.6495 98.5736 20.6495C97.1622 20.6495 95.3546 20.7981 95.3546 22.9029H92.7546C92.7546 19.56 94.9831 18.2476 98.5736 18.2476C102.709 18.2476 104.739 19.56 104.739 23.5219V31H101.892V29.3162C101.396 30.5295 100.233 31.3714 97.5088 31.3714C94.3888 31.3714 92.0612 30.5543 92.0612 27.4838C92.0612 25.0076 94.0174 23.9676 97.5088 23.5962L101.892 23.1505V23.101ZM101.892 25.2057L97.9298 25.6019C96.3203 25.7752 95.0326 26.221 95.0326 27.4343C95.0326 28.3752 95.7755 28.9448 97.905 28.9448C100.678 28.9448 101.768 27.7562 101.892 26.84V25.2057ZM109.822 31H106.974V18.619H109.822V20.3276C110.59 19.0152 111.853 18.2476 113.561 18.2476C116.557 18.2476 118.167 20.0057 118.167 23.621H115.567C115.567 22.0114 114.774 20.8971 112.942 20.8971C110.986 20.8971 109.822 22.2343 109.822 24.7848V31ZM122.759 35.9524H119.912V18.619H122.759V20.3524C123.453 19.0152 124.691 18.2476 126.845 18.2476C130.213 18.2476 132.491 20.501 132.491 24.8095C132.491 29.1181 129.841 31.3714 126.746 31.3714C124.641 31.3714 123.428 30.5048 122.759 29.1676V35.9524ZM129.519 24.7848C129.519 22.2343 128.529 20.8971 126.176 20.8971C123.948 20.8971 122.759 22.2343 122.759 24.7848C122.759 27.3352 123.948 28.6971 126.176 28.6971C128.207 28.6971 129.519 27.3352 129.519 24.7848ZM143.557 23.101C143.557 20.8476 141.6 20.6495 140.238 20.6495C138.827 20.6495 137.019 20.7981 137.019 22.9029H134.419C134.419 19.56 136.648 18.2476 140.238 18.2476C144.374 18.2476 146.404 19.56 146.404 23.5219V31H143.557V29.3162C143.061 30.5295 141.897 31.3714 139.174 31.3714C136.054 31.3714 133.726 30.5543 133.726 27.4838C133.726 25.0076 135.682 23.9676 139.174 23.5962L143.557 23.1505V23.101ZM143.557 25.2057L139.595 25.6019C137.985 25.7752 136.697 26.221 136.697 27.4343C136.697 28.3752 137.44 28.9448 139.57 28.9448C142.343 28.9448 143.433 27.7562 143.557 26.84V25.2057Z" fill="#EBEFE0"/>
</svg>
