<svg width="88" height="16" viewBox="0 0 88 16" fill="none" xmlns="http://www.w3.org/2000/svg">
<g clip-path="url(#clip0_3180_1524)">
<path d="M7.63067 1.28787C7.76731 0.959356 8.23269 0.959357 8.36933 1.28787L10.0222 5.26186C10.0798 5.40035 10.21 5.49498 10.3596 5.50697L14.6498 5.85091C15.0045 5.87935 15.1483 6.32195 14.8781 6.55342L11.6094 9.35342C11.4954 9.451 11.4457 9.60411 11.4805 9.75002L12.4791 13.9366C12.5617 14.2827 12.1852 14.5562 11.8816 14.3707L8.2085 12.1273C8.0805 12.0491 7.91951 12.0491 7.7915 12.1273L4.11845 14.3707C3.81481 14.5562 3.43831 14.2827 3.52086 13.9366L4.51951 9.75002C4.55431 9.60411 4.50456 9.451 4.39065 9.35342L1.12193 6.55342C0.851714 6.32195 0.995526 5.87935 1.35019 5.85091L5.64044 5.50697C5.78995 5.49498 5.9202 5.40035 5.9778 5.26186L7.63067 1.28787Z" fill="#F2F4F7"/>
<g clip-path="url(#clip1_3180_1524)">
<path d="M7.63067 1.28787C7.76731 0.959356 8.23269 0.959357 8.36933 1.28787L10.0222 5.26186C10.0798 5.40035 10.21 5.49498 10.3596 5.50697L14.6498 5.85091C15.0045 5.87935 15.1483 6.32195 14.8781 6.55342L11.6094 9.35342C11.4954 9.451 11.4457 9.60411 11.4805 9.75002L12.4791 13.9366C12.5617 14.2827 12.1852 14.5562 11.8816 14.3707L8.2085 12.1273C8.0805 12.0491 7.91951 12.0491 7.7915 12.1273L4.11845 14.3707C3.81481 14.5562 3.43831 14.2827 3.52086 13.9366L4.51951 9.75002C4.55431 9.60411 4.50456 9.451 4.39065 9.35342L1.12193 6.55342C0.851714 6.32195 0.995526 5.87935 1.35019 5.85091L5.64044 5.50697C5.78995 5.49498 5.9202 5.40035 5.9778 5.26186L7.63067 1.28787Z" fill="#FDB022"/>
</g>
</g>
<g clip-path="url(#clip2_3180_1524)">
<path d="M25.6307 1.28787C25.7673 0.959356 26.2327 0.959357 26.3693 1.28787L28.0222 5.26186C28.0798 5.40035 28.21 5.49498 28.3596 5.50697L32.6498 5.85091C33.0045 5.87935 33.1483 6.32195 32.8781 6.55342L29.6094 9.35342C29.4954 9.451 29.4457 9.60411 29.4805 9.75002L30.4791 13.9366C30.5617 14.2827 30.1852 14.5562 29.8816 14.3707L26.2085 12.1273C26.0805 12.0491 25.9195 12.0491 25.7915 12.1273L22.1184 14.3707C21.8148 14.5562 21.4383 14.2827 21.5209 13.9366L22.5195 9.75002C22.5543 9.60411 22.5046 9.451 22.3906 9.35342L19.1219 6.55342C18.8517 6.32195 18.9955 5.87935 19.3502 5.85091L23.6404 5.50697C23.79 5.49498 23.9202 5.40035 23.9778 5.26186L25.6307 1.28787Z" fill="#F2F4F7"/>
<g clip-path="url(#clip3_3180_1524)">
<path d="M25.6307 1.28787C25.7673 0.959356 26.2327 0.959357 26.3693 1.28787L28.0222 5.26186C28.0798 5.40035 28.21 5.49498 28.3596 5.50697L32.6498 5.85091C33.0045 5.87935 33.1483 6.32195 32.8781 6.55342L29.6094 9.35342C29.4954 9.451 29.4457 9.60411 29.4805 9.75002L30.4791 13.9366C30.5617 14.2827 30.1852 14.5562 29.8816 14.3707L26.2085 12.1273C26.0805 12.0491 25.9195 12.0491 25.7915 12.1273L22.1184 14.3707C21.8148 14.5562 21.4383 14.2827 21.5209 13.9366L22.5195 9.75002C22.5543 9.60411 22.5046 9.451 22.3906 9.35342L19.1219 6.55342C18.8517 6.32195 18.9955 5.87935 19.3502 5.85091L23.6404 5.50697C23.79 5.49498 23.9202 5.40035 23.9778 5.26186L25.6307 1.28787Z" fill="#FDB022"/>
</g>
</g>
<g clip-path="url(#clip4_3180_1524)">
<path d="M43.6307 1.28787C43.7673 0.959356 44.2327 0.959357 44.3693 1.28787L46.0222 5.26186C46.0798 5.40035 46.21 5.49498 46.3596 5.50697L50.6498 5.85091C51.0045 5.87935 51.1483 6.32195 50.8781 6.55342L47.6094 9.35342C47.4954 9.451 47.4457 9.60411 47.4805 9.75002L48.4791 13.9366C48.5617 14.2827 48.1852 14.5562 47.8816 14.3707L44.2085 12.1273C44.0805 12.0491 43.9195 12.0491 43.7915 12.1273L40.1184 14.3707C39.8148 14.5562 39.4383 14.2827 39.5209 13.9366L40.5195 9.75002C40.5543 9.60411 40.5046 9.451 40.3906 9.35342L37.1219 6.55342C36.8517 6.32195 36.9955 5.87935 37.3502 5.85091L41.6404 5.50697C41.79 5.49498 41.9202 5.40035 41.9778 5.26186L43.6307 1.28787Z" fill="#F2F4F7"/>
<g clip-path="url(#clip5_3180_1524)">
<path d="M43.6307 1.28787C43.7673 0.959356 44.2327 0.959357 44.3693 1.28787L46.0222 5.26186C46.0798 5.40035 46.21 5.49498 46.3596 5.50697L50.6498 5.85091C51.0045 5.87935 51.1483 6.32195 50.8781 6.55342L47.6094 9.35342C47.4954 9.451 47.4457 9.60411 47.4805 9.75002L48.4791 13.9366C48.5617 14.2827 48.1852 14.5562 47.8816 14.3707L44.2085 12.1273C44.0805 12.0491 43.9195 12.0491 43.7915 12.1273L40.1184 14.3707C39.8148 14.5562 39.4383 14.2827 39.5209 13.9366L40.5195 9.75002C40.5543 9.60411 40.5046 9.451 40.3906 9.35342L37.1219 6.55342C36.8517 6.32195 36.9955 5.87935 37.3502 5.85091L41.6404 5.50697C41.79 5.49498 41.9202 5.40035 41.9778 5.26186L43.6307 1.28787Z" fill="#FDB022"/>
</g>
</g>
<g clip-path="url(#clip6_3180_1524)">
<path d="M61.6307 1.28787C61.7673 0.959356 62.2327 0.959357 62.3693 1.28787L64.0222 5.26186C64.0798 5.40035 64.21 5.49498 64.3596 5.50697L68.6498 5.85091C69.0045 5.87935 69.1483 6.32195 68.8781 6.55342L65.6094 9.35342C65.4954 9.451 65.4457 9.60411 65.4805 9.75002L66.4791 13.9366C66.5617 14.2827 66.1852 14.5562 65.8816 14.3707L62.2085 12.1273C62.0805 12.0491 61.9195 12.0491 61.7915 12.1273L58.1184 14.3707C57.8148 14.5562 57.4383 14.2827 57.5209 13.9366L58.5195 9.75002C58.5543 9.60411 58.5046 9.451 58.3906 9.35342L55.1219 6.55342C54.8517 6.32195 54.9955 5.87935 55.3502 5.85091L59.6404 5.50697C59.79 5.49498 59.9202 5.40035 59.9778 5.26186L61.6307 1.28787Z" fill="#F2F4F7"/>
<g clip-path="url(#clip7_3180_1524)">
<path d="M61.6307 1.28787C61.7673 0.959356 62.2327 0.959357 62.3693 1.28787L64.0222 5.26186C64.0798 5.40035 64.21 5.49498 64.3596 5.50697L68.6498 5.85091C69.0045 5.87935 69.1483 6.32195 68.8781 6.55342L65.6094 9.35342C65.4954 9.451 65.4457 9.60411 65.4805 9.75002L66.4791 13.9366C66.5617 14.2827 66.1852 14.5562 65.8816 14.3707L62.2085 12.1273C62.0805 12.0491 61.9195 12.0491 61.7915 12.1273L58.1184 14.3707C57.8148 14.5562 57.4383 14.2827 57.5209 13.9366L58.5195 9.75002C58.5543 9.60411 58.5046 9.451 58.3906 9.35342L55.1219 6.55342C54.8517 6.32195 54.9955 5.87935 55.3502 5.85091L59.6404 5.50697C59.79 5.49498 59.9202 5.40035 59.9778 5.26186L61.6307 1.28787Z" fill="#FDB022"/>
</g>
</g>
<g clip-path="url(#clip8_3180_1524)">
<path d="M79.6307 1.28787C79.7673 0.959356 80.2327 0.959357 80.3693 1.28787L82.0222 5.26186C82.0798 5.40035 82.21 5.49498 82.3596 5.50697L86.6498 5.85091C87.0045 5.87935 87.1483 6.32195 86.8781 6.55342L83.6094 9.35342C83.4954 9.451 83.4457 9.60411 83.4805 9.75002L84.4791 13.9366C84.5617 14.2827 84.1852 14.5562 83.8816 14.3707L80.2085 12.1273C80.0805 12.0491 79.9195 12.0491 79.7915 12.1273L76.1184 14.3707C75.8148 14.5562 75.4383 14.2827 75.5209 13.9366L76.5195 9.75002C76.5543 9.60411 76.5046 9.451 76.3906 9.35342L73.1219 6.55342C72.8517 6.32195 72.9955 5.87935 73.3502 5.85091L77.6404 5.50697C77.79 5.49498 77.9202 5.40035 77.9778 5.26186L79.6307 1.28787Z" fill="#F2F4F7"/>
<g clip-path="url(#clip9_3180_1524)">
<path d="M79.6307 1.28787C79.7673 0.959356 80.2327 0.959357 80.3693 1.28787L82.0222 5.26186C82.0798 5.40035 82.21 5.49498 82.3596 5.50697L86.6498 5.85091C87.0045 5.87935 87.1483 6.32195 86.8781 6.55342L83.6094 9.35342C83.4954 9.451 83.4457 9.60411 83.4805 9.75002L84.4791 13.9366C84.5617 14.2827 84.1852 14.5562 83.8816 14.3707L80.2085 12.1273C80.0805 12.0491 79.9195 12.0491 79.7915 12.1273L76.1184 14.3707C75.8148 14.5562 75.4383 14.2827 75.5209 13.9366L76.5195 9.75002C76.5543 9.60411 76.5046 9.451 76.3906 9.35342L73.1219 6.55342C72.8517 6.32195 72.9955 5.87935 73.3502 5.85091L77.6404 5.50697C77.79 5.49498 77.9202 5.40035 77.9778 5.26186L79.6307 1.28787Z" fill="#FDB022"/>
</g>
</g>
<defs>
<clipPath id="clip0_3180_1524">
<rect width="16" height="16" fill="white"/>
</clipPath>
<clipPath id="clip1_3180_1524">
<rect width="16" height="16" fill="white"/>
</clipPath>
<clipPath id="clip2_3180_1524">
<rect width="16" height="16" fill="white" transform="translate(18)"/>
</clipPath>
<clipPath id="clip3_3180_1524">
<rect width="16" height="16" fill="white" transform="translate(18)"/>
</clipPath>
<clipPath id="clip4_3180_1524">
<rect width="16" height="16" fill="white" transform="translate(36)"/>
</clipPath>
<clipPath id="clip5_3180_1524">
<rect width="16" height="16" fill="white" transform="translate(36)"/>
</clipPath>
<clipPath id="clip6_3180_1524">
<rect width="16" height="16" fill="white" transform="translate(54)"/>
</clipPath>
<clipPath id="clip7_3180_1524">
<rect width="16" height="16" fill="white" transform="translate(54)"/>
</clipPath>
<clipPath id="clip8_3180_1524">
<rect width="16" height="16" fill="white" transform="translate(72)"/>
</clipPath>
<clipPath id="clip9_3180_1524">
<rect width="16" height="16" fill="white" transform="translate(72)"/>
</clipPath>
</defs>
</svg>
