<svg width="36" height="81" viewBox="0 0 36 81" fill="none" xmlns="http://www.w3.org/2000/svg">
<path fill-rule="evenodd" clip-rule="evenodd" d="M34.188 78.5003C21.8844 76.7967 12.9273 67.1169 8.84084 53.886C7.16207 48.41 6.91909 42.3366 7.50445 35.9867C8.58681 24.6475 13.7888 14.8018 21.3764 7.62214C21.4095 7.58895 21.4206 7.57789 21.4316 7.61108C21.4537 7.64427 21.52 7.67745 21.5531 7.69958C21.5973 7.7217 21.6083 7.69958 21.5752 7.75489C13.5237 15.1337 8.35488 26.8711 7.79161 38.7302C6.91909 55.6671 15.1362 70.668 27.4509 75.8342C29.5162 76.7082 31.6809 77.3719 33.934 77.7149C34.0886 77.914 34.177 78.1905 34.188 78.5003Z" fill="#EBEFE0"/>
<path fill-rule="evenodd" clip-rule="evenodd" d="M3.51737 50.2132C4.52243 51.408 6.12388 52.5806 7.84683 52.127C7.93518 52.2598 8.38801 52.9235 8.45428 53.0231C8.53159 53.1448 8.67517 53.2665 8.78561 53.1669C8.85188 53.1227 8.9071 53.0231 8.84084 52.8682C8.58681 52.5585 8.34383 52.2377 8.05667 51.9058C7.54863 49.2176 6.80864 47.4254 5.26241 45.6112C3.4732 43.5314 1.6398 42.6021 0.502216 42.2149C0.336548 42.1707 0.181926 42.1264 0.0162576 42.0711C-0.0941877 43.111 0.380727 44.6266 0.756241 45.4895C1.48518 47.2595 2.28039 48.8082 3.51737 50.2132Z" fill="#EBEFE0"/>
<path fill-rule="evenodd" clip-rule="evenodd" d="M18.317 12.3459C18.1735 12.4012 17.3341 12.6224 17.2347 12.4565C17.2015 12.4123 17.2457 12.2463 17.323 12.2353C17.6323 12.2021 17.9747 12.1799 18.2729 12.1136C18.814 10.4099 20.3161 9.66873 21.6967 9.3811C23.3533 9.04922 25.1757 9.5581 27.1306 9.83467C27.23 9.85679 27.3404 9.86785 27.4288 9.86785C27.3956 9.93423 27.3515 9.97848 27.3073 10.0449C26.49 11.1622 25.2088 12.191 23.9608 12.6999C23.1214 13.0539 22.1164 13.253 21.1334 13.2198C20.0952 13.1756 19.2227 12.9433 18.317 12.3459Z" fill="#EBEFE0"/>
<path fill-rule="evenodd" clip-rule="evenodd" d="M21.5531 7.68852C21.6194 7.71064 21.6194 7.68852 21.7408 7.62214C21.9728 7.40089 22.1716 7.26814 22.4035 7.05795C23.7289 7.06901 24.9879 6.67076 26.1807 5.87425C26.7109 5.52024 27.241 5.0888 27.6828 4.56886C28.7431 3.42941 29.5935 1.75896 29.9801 0.232316C30.0022 0.143815 30.0132 0.0885009 30.0242 0C29.9248 0.0442505 29.8365 0.0885023 29.7371 0.132753C27.5945 0.995637 25.5181 1.39389 23.7951 3.06435C22.6244 4.18167 22.017 5.53131 22.2599 6.8367C21.9949 7.04689 21.7188 7.24601 21.4647 7.48939C21.3543 7.58895 21.4868 7.68852 21.5531 7.68852Z" fill="#EBEFE0"/>
<path fill-rule="evenodd" clip-rule="evenodd" d="M13.7557 19.4813C13.6121 19.5587 12.8058 19.9791 12.6843 19.8353C12.6291 19.78 12.6512 19.6029 12.7285 19.5698C13.0267 19.4591 13.3801 19.3817 13.6783 19.2489C13.7888 18.0431 14.4625 16.9147 15.7989 16.1404C17.8421 15.0562 20.1615 15.2332 22.3483 15.0452C22.4587 15.0341 22.5581 15.0341 22.6575 15.023C22.6244 15.0894 22.5913 15.1447 22.5692 15.2111C21.8402 16.4722 20.6585 17.8329 19.4546 18.6073C18.6484 19.1494 17.6544 19.5587 16.6604 19.7578C15.6111 19.968 14.7165 19.8463 13.7557 19.4813Z" fill="#EBEFE0"/>
<path fill-rule="evenodd" clip-rule="evenodd" d="M3.0535 38.0886C3.71618 39.582 4.90898 41.2193 6.65402 41.3299C6.70924 41.4848 7.02953 42.2039 7.07371 42.3145C7.10685 42.4694 7.21729 42.6353 7.36087 42.5689C7.42714 42.5468 7.4934 42.4583 7.48236 42.3034C7.31669 41.9052 7.10685 41.5954 6.90804 41.1861C7.06267 38.4426 6.90804 36.4402 5.85881 34.1835C4.666 31.5838 3.03141 30.0903 2.02636 29.3602C1.90487 29.2495 1.76129 29.1611 1.61771 29.0725C1.38578 30.1346 1.46309 31.7829 1.60667 32.7343C1.86069 34.6592 2.26934 36.3517 3.0535 38.0886Z" fill="#EBEFE0"/>
<path fill-rule="evenodd" clip-rule="evenodd" d="M5.00838 27.0702C5.29554 28.6632 6.01344 30.2673 7.60385 30.9643C7.62594 31.1302 7.80265 31.9046 7.82474 32.0263C7.82474 32.1922 7.87996 32.3803 8.03458 32.3581C8.07876 32.3471 8.18921 32.3028 8.20025 32.1369C8.13399 31.7165 8.0125 31.2408 7.93519 30.7873C8.46532 28.8513 8.75248 27.0813 8.66412 25.1896C8.52054 22.5235 7.52654 20.2114 5.95821 18.3529C5.83672 18.2201 5.74837 18.0763 5.63792 17.9546C5.19614 18.8728 4.90898 20.4437 4.83167 21.384C4.666 23.2868 4.67705 25.2006 5.00838 27.0702Z" fill="#EBEFE0"/>
<path fill-rule="evenodd" clip-rule="evenodd" d="M9.01755 17.0143C8.97337 18.6516 9.37097 20.488 10.7405 21.55C10.7295 21.7159 10.6963 22.5124 10.6963 22.623C10.6742 22.7779 10.6853 22.966 10.8399 22.9992C10.8951 22.9992 10.9945 22.9881 11.0277 22.8332C11.0608 22.4239 11.0718 21.7933 11.0939 21.3398C12.2646 19.3485 12.8942 17.1802 12.9163 14.7022C12.9604 11.837 12.2536 10.0117 11.6903 8.86115C11.613 8.70628 11.5357 8.5514 11.4584 8.39652C10.8399 9.14878 10.2545 10.5869 9.98947 11.4719C9.45933 13.2641 9.07277 15.1337 9.01755 17.0143Z" fill="#EBEFE0"/>
<path fill-rule="evenodd" clip-rule="evenodd" d="M15.092 7.83233C14.7386 9.37003 14.838 11.6268 15.9867 12.5561C15.9425 12.7552 15.8431 13.4411 15.832 13.596C15.7878 13.7619 15.7547 13.9168 15.8872 13.9831C15.9425 14.0053 15.9866 14.0053 16.0529 13.8615C16.1302 13.43 16.1523 13.076 16.2186 12.6335C17.8532 10.8856 18.7809 9.15984 19.3 6.80351C19.8191 4.33654 19.7418 2.37846 19.5209 0.995635C19.4988 0.829696 19.4546 0.663758 19.4105 0.486756C17.9747 1.63727 16.9586 3.15285 16.0971 4.87861C15.6332 5.81894 15.2688 6.78138 15.092 7.83233Z" fill="#EBEFE0"/>
<path fill-rule="evenodd" clip-rule="evenodd" d="M10.0889 28.8955C9.95633 29.0172 9.22739 29.7142 9.05068 29.6257C9.0065 29.5814 8.97337 29.3491 9.05068 29.3049C9.32679 29.0836 9.68022 28.9177 9.95633 28.7075C9.86798 27.38 10.1662 26.0303 11.37 24.7692C13.2255 22.966 15.6884 22.3575 17.9305 21.4283C18.0299 21.384 18.1293 21.3287 18.2508 21.2845C18.2287 21.3619 18.2176 21.4504 18.1845 21.5278C17.7427 23.0766 16.8592 24.8798 15.7878 26.0967C15.092 26.9153 14.1533 27.7008 13.1703 28.2207C12.1432 28.7739 11.1712 28.9509 10.0889 28.8955Z" fill="#EBEFE0"/>
<path fill-rule="evenodd" clip-rule="evenodd" d="M8.54263 39.7037C8.44323 39.8807 7.85787 40.8321 7.67012 40.7879C7.5928 40.7879 7.51549 40.5555 7.57072 40.467C7.81369 40.1462 8.12294 39.8918 8.33279 39.5599C7.95727 38.343 8.13399 36.5841 9.03964 34.9025C10.4754 32.4466 12.5739 31.2519 14.6061 29.5372C14.6944 29.4487 14.7828 29.3712 14.8822 29.2717C14.8932 29.3491 14.9043 29.4376 14.8932 29.5372C14.8491 31.2187 14.4073 33.3317 13.6231 34.9247C13.1151 35.9977 12.364 37.0708 11.5026 37.9669C10.608 38.863 9.65813 39.3829 8.54263 39.7037Z" fill="#EBEFE0"/>
<path fill-rule="evenodd" clip-rule="evenodd" d="M9.55873 50.3017C9.48142 50.5119 9.08382 51.6403 8.88501 51.6845C8.81875 51.6735 8.68621 51.5075 8.74144 51.3858C8.90711 51.0097 9.09486 50.5783 9.24948 50.1911C8.56472 49.5384 8.33279 47.7241 8.88501 45.8213C9.80171 43.0336 11.8449 40.9427 13.4906 38.6306C13.5679 38.52 13.6452 38.4094 13.7225 38.2988C13.7446 38.3762 13.7557 38.4647 13.7777 38.5532C14.0649 40.1794 14.0428 42.3366 13.601 44.0956C13.3028 45.2682 12.7837 46.5625 12.11 47.6688C11.4142 48.8414 10.5859 49.649 9.55873 50.3017Z" fill="#EBEFE0"/>
<path fill-rule="evenodd" clip-rule="evenodd" d="M7.0958 62.7029C8.34383 63.5215 10.5748 64.141 12.11 63.1343C12.2315 63.2228 12.8721 63.61 12.9494 63.6764C13.0598 63.787 13.2145 63.8645 13.3139 63.7096C13.3691 63.6432 13.4022 63.5326 13.2918 63.4109C12.9715 63.1896 12.6181 63.0458 12.2757 62.8246C11.105 60.3908 9.84589 58.7425 7.9131 57.5256C5.70419 56.1096 3.85975 56.0875 2.67799 56.0875C2.51232 56.0875 2.34665 56.0985 2.18098 56.0985C2.46814 58.4991 5.43912 61.6741 7.0958 62.7029Z" fill="#EBEFE0"/>
<path fill-rule="evenodd" clip-rule="evenodd" d="M13.2255 60.8223C13.2145 60.9771 13.1372 61.663 13.0267 62.0834C12.9936 62.2051 12.9825 62.3821 12.8169 62.3157C12.7506 62.3046 12.6843 62.1608 12.6843 62.0945C12.7616 61.6851 12.8279 61.2205 12.861 60.8112C12.099 60.3244 11.5026 58.7314 11.3811 56.7733C11.5136 53.8196 12.839 51.1425 13.8992 48.3547C13.9324 48.233 13.9765 48.1002 14.0207 47.9675C14.0649 48.0339 14.087 48.1002 14.1312 48.1666C14.838 49.6269 15.3792 51.6735 15.4234 53.5209C15.4676 54.7267 15.2908 56.1317 14.9374 57.4371C14.5619 58.7757 14.0097 59.8266 13.2255 60.8223Z" fill="#EBEFE0"/>
<path fill-rule="evenodd" clip-rule="evenodd" d="M13.8551 72.8031C15.2908 73.0907 17.2347 73.0243 18.4496 71.4755C18.7588 71.5198 19.2558 71.5972 19.5761 71.6194C19.6645 71.6304 19.7307 71.564 19.7639 71.4534C19.786 71.376 19.7639 71.2764 19.6203 71.199C19.2558 71.1215 18.8914 71.1215 18.5048 71.0552C16.8923 69.1635 15.3682 68.1014 13.1703 67.7032C10.6301 67.2386 8.47637 67.8913 7.32774 68.367C7.17311 68.4223 7.00744 68.4886 6.86387 68.5661C7.27251 69.4843 8.46532 70.4246 9.21635 70.8782C10.6521 71.8295 12.1211 72.5154 13.8551 72.8031Z" fill="#EBEFE0"/>
<path fill-rule="evenodd" clip-rule="evenodd" d="M18.9908 68.8095C19.0128 68.9754 19.0349 69.6392 19.0349 70.0817C19.0239 70.2033 19.057 70.3693 18.8914 70.3803C18.814 70.3803 18.7257 70.2808 18.7257 70.2033C18.6926 69.794 18.7146 69.3515 18.6484 68.9311C17.798 68.6656 16.6714 67.3713 16.1523 65.5902C15.5559 62.7361 16.2075 59.7934 16.5168 56.7733C16.5389 56.6406 16.5278 56.5078 16.5389 56.364C16.5941 56.4193 16.6604 56.4746 16.7156 56.53C17.7538 57.6694 18.792 59.4284 19.289 61.1541C19.6313 62.2825 19.8081 63.6764 19.8081 65.015C19.786 66.4199 19.4988 67.6036 18.9908 68.8095Z" fill="#EBEFE0"/>
<path fill-rule="evenodd" clip-rule="evenodd" d="M27.0312 74.6173C27.1085 74.739 27.2079 75.2921 27.3183 75.7125C27.3515 75.8121 27.4177 75.967 27.2631 76.0223C27.1858 76.0555 27.0864 75.9891 27.0643 75.9227C26.9207 75.5687 26.9207 75.1926 26.744 74.8386C25.9157 75.0377 24.4799 73.9868 23.5411 72.615C22.2379 70.2476 22.0943 67.4709 21.5862 64.6499C21.5752 64.5172 21.531 64.3955 21.5089 64.2627C21.5752 64.2738 21.6414 64.318 21.7077 64.3402C22.9557 64.9707 24.3805 66.0881 25.2972 67.4598C25.9267 68.3448 26.5121 69.5728 26.8434 70.8007C27.1858 72.0951 27.1968 73.323 27.0312 74.6173Z" fill="#EBEFE0"/>
<path fill-rule="evenodd" clip-rule="evenodd" d="M22.514 79.8831C23.9829 79.684 25.8825 79.0092 26.7219 77.1285C27.0201 77.04 27.5392 76.9847 27.8485 76.8962C27.9368 76.8852 27.981 76.7856 27.9921 76.6639C27.9921 76.5975 27.9479 76.498 27.7933 76.4759C27.4288 76.5312 27.0643 76.6418 26.6557 76.686C24.5241 75.4249 22.8011 74.8496 20.5591 75.1705C17.9857 75.5355 16.1081 76.8299 15.1031 77.6596C14.9595 77.7812 14.8159 77.8919 14.6834 78.0135C15.3019 78.7769 16.6935 79.2858 17.5218 79.507C19.1454 79.9606 20.7358 80.1376 22.514 79.8831Z" fill="#EBEFE0"/>
</svg>
